<svg width="22" height="20" viewBox="0 0 22 20" fill="none" xmlns="http://www.w3.org/2000/svg">
<path d="M15.5895 12.5786H14.6593L14.3296 12.2699C15.4836 10.9663 16.1783 9.27387 16.1783 7.43282C16.1783 3.32762 12.7518 0 8.52469 0C4.29755 0 0.871094 3.32762 0.871094 7.43282C0.871094 11.538 4.29755 14.8656 8.52469 14.8656C10.4204 14.8656 12.1631 14.191 13.5054 13.0703L13.8233 13.3905V14.2939L19.7107 20L21.4651 18.2962L15.5895 12.5786ZM8.52469 12.5786C5.59277 12.5786 3.22605 10.2802 3.22605 7.43282C3.22605 4.58548 5.59277 2.28702 8.52469 2.28702C11.4566 2.28702 13.8233 4.58548 13.8233 7.43282C13.8233 10.2802 11.4566 12.5786 8.52469 12.5786Z" fill="#959595"/>
</svg>
